:SAMPLES-PER-SECOND 30
:FULLY-SPECIFIED
:DEGREES
34
root  -60.3319 36.5165 -1.35329 77.575 86.4975 79.485
RightUpLeg  -16.71 -1.36239 -1.97436
RightLeg  66.9913 8.97726 -4.42863
RightFoot  -3.3091 -0.165112 1.93477
RightToes  1.74622e-010 -3.18055e-015 8.94531e-016
Spine  8.53673 1.05084 -3.68762
Spine1  13.9407 1.83421 -4.68512
HEad  -18.3437 -1.54671 4.38347
LeftShoulder1  0 -2.69403e-036 -1.28585e-037
LeftArm  11.8276 43.5307 -80.2965
LeftForeArm  -33.0594 -19.4263 2.82091
LeftHand  0.933573 6.45428 -5.87036
RightShoulder  -2.48481e-017 0 -8.08114e-019
RightArm  27.1502 -26.5693 87.5553
RightForeArm  -46.2857 23.942 -22.5071
RightHand  1.48686 -12.1328 -5.81197
LeftUpLeg  -32.0363 -6.84051 -4.85326
LeftLeg  31.7774 -3.55998 4.48842
LeftFoot  0.551236 -0.0952557 0.791097
LeftToes  -8.00353e-011 5.68142e-011 4.78552e-012
35
root  -59.0853 36.6508 -1.50673 65.2218 87.8203 66.4273
RightUpLeg  -23.6242 -0.130503 0.313572
RightLeg  66.0434 10.0274 -1.44647
RightFoot  -9.01515 -0.0823874 2.37537
RightToes  1.74622e-010 -3.18055e-015 8.94531e-016
Spine  12.2558 0.218799 -1.55127
Spine1  11.4189 1.29205 -5.12424
HEad  -21.0572 -0.517404 3.05097
LeftShoulder1  0 -2.69403e-036 -1.28585e-037
LeftArm  9.11743 40.4262 -81.0851
LeftForeArm  -29.6049 -18.1789 1.23073
LeftHand  0.901572 6.20064 -4.92343
RightShoulder  -2.48481e-017 0 -8.08114e-019
RightArm  29.3821 -29.1527 88.8877
RightForeArm  -50.4071 22.0713 -21.1245
RightHand  1.51066 -12.1269 -6.29518
LeftUpLeg  -32.0341 -6.59149 -3.58612
LeftLeg  34.4303 -3.92418 4.86869
LeftFoot  -2.46657 0.0472796 -0.572009
LeftToes  -8.00353e-011 5.68142e-011 4.78552e-012
36
root  -57.8506 36.6651 -1.62634 16.5574 89.0819 16.2305
RightUpLeg  -30.348 1.73494 2.47807
RightLeg  61.7897 11.6293 2.29862
RightFoot  -12.6392 -0.0109279 3.5146
RightToes  1.74622e-010 -3.18055e-015 8.94531e-016
Spine  15.3871 -0.440186 0.279844
Spine1  8.44608 0.721192 -4.29572
HEad  -24.5084 0.358577 2.34284
LeftShoulder1  0 -2.69403e-036 -1.28585e-037
LeftArm  8.10829 38.479 -81.9574
LeftForeArm  -28.6535 -17.8771 0.901581
LeftHand  0.87307 6.05878 -3.679
RightShoulder  -2.48481e-017 0 -8.08114e-019
RightArm  29.5673 -32.4363 89.2162
RightForeArm  -51.4123 21.3101 -19.9805
RightHand  1.51708 -12.0223 -6.74871
LeftUpLeg  -33.4393 -6.37519 -1.95716
LeftLeg  37.7981 -4.67636 5.09213
LeftFoot  -5.17543 0.0912439 -1.48457
LeftToes  -8.00353e-011 5.68142e-011 4.78552e-012
37
root  -56.6023 36.39 -1.67503 -37.7219 88.7284 -39.5845
RightUpLeg  -35.6985 4.61766 3.1378
RightLeg  56.4369 12.588 3.58714
RightFoot  -13.7803 0.021144 2.93469
RightToes  1.74622e-010 -3.18055e-015 8.94531e-016
Spine  17.6112 -0.661382 0.52072
Spine1  6.46066 0.261831 -2.76097
HEad  -29.2923 1.37103 2.27446
LeftShoulder1  0 -2.69403e-036 -1.28585e-037
LeftArm  8.56671 36.8609 -82.3783
LeftForeArm  -28.5521 -17.81 0.698684
LeftHand  0.832011 5.80157 -2.7054
RightShoulder  -2.48481e-017 0 -8.08114e-019
RightArm  29.6214 -35.0498 88.897
RightForeArm  -50.5235 20.9817 -18.3091
RightHand  1.54272 -12.0447 -7.18535
LeftUpLeg  -35.2712 -6.27254 -0.972157
LeftLeg  42.1649 -5.33209 5.59738
LeftFoot  -8.96673 0.0150113 -1.07716
LeftToes  -8.00353e-011 5.68142e-011 4.78552e-012
38
root  -55.2461 35.722 -1.63964 -50.7473 88.9987 -53.1535
RightUpLeg  -38.953 7.74012 2.16587
RightLeg  54.6519 11.7017 2.05181
RightFoot  -13.5632 0.00869842 1.14007
RightToes  1.74622e-010 -3.18055e-015 8.94531e-016
Spine  18.911 -0.802567 -1.14994
Spine1  5.9362 -0.42493 -1.10808
HEad  -34.5419 2.55695 2.54299
LeftShoulder1  0 -2.69403e-036 -1.28585e-037
LeftArm  5.79283 34.448 -81.8887
LeftForeArm  -24.1905 -15.4807 -1.82323
LeftHand  0.823699 5.60572 -3.55632
RightShoulder  -2.48481e-017 0 -8.08114e-019
RightArm  24.8526 -35.6295 88.2845
RightForeArm  -43.9003 20.2878 -11.7416
RightHand  1.57673 -12.236 -7.2336
LeftUpLeg  -36.4766 -7.27397 -1.02161
LeftLeg  47.7838 -5.5012 7.04591
LeftFoot  -14.0067 -0.0446754 -0.597586
LeftToes  -8.00353e-011 5.68142e-011 4.78552e-012
39
root  -53.7776 34.7854 -1.54109 -171.949 88.7418 -174.428
RightUpLeg  -40.7204 9.08529 0.984158
RightLeg  58.5446 10.211 -0.437464
RightFoot  -14.1966 0.0055497 0.104844
RightToes  1.74622e-010 -3.18055e-015 8.94531e-016
Spine  19.288 -1.22153 -3.82521
Spine1  5.93177 -1.79552 1.02257
HEad  -38.5231 3.38565 2.92533
LeftShoulder1  0 -2.69403e-036 -1.28585e-037
LeftArm  -0.0272659 31.548 -80.9495
LeftForeArm  -16.8123 -10.6318 -5.2355
LeftHand  0.884033 5.89883 -5.70904
RightShoulder  -2.48481e-017 0 -8.08114e-019
RightArm  12.5641 -35.3277 87.3243
RightForeArm  -29.7883 16.7255 -1.35683
RightHand  1.57051 -12.3924 -6.63627
LeftUpLeg  -37.3567 -9.6783 -1.75759
LeftLeg  54.0503 -5.91384 8.77086
LeftFoot  -18.6943 -0.117016 -1.33427
LeftToes  -8.00353e-011 5.68142e-011 4.78552e-012
